<?xml version="1.0" encoding="UTF-8" standalone="no"?>
<!-- Created with Inkscape (http://www.inkscape.org/) -->

<svg
   xmlns:dc="http://purl.org/dc/elements/1.1/"
   xmlns:cc="http://creativecommons.org/ns#"
   xmlns:rdf="http://www.w3.org/1999/02/22-rdf-syntax-ns#"
   xmlns:svg="http://www.w3.org/2000/svg"
   xmlns="http://www.w3.org/2000/svg"
   xmlns:sodipodi="http://sodipodi.sourceforge.net/DTD/sodipodi-0.dtd"
   xmlns:inkscape="http://www.inkscape.org/namespaces/inkscape"
   version="1.1"
   id="svg815"
   width="225"
   height="225"
   viewBox="0 0 225 225"
   sodipodi:docname="lightbulb.svg"
   inkscape:version="0.92.4 (5da689c313, 2019-01-14)">
  <metadata
     id="metadata821">
    <rdf:RDF>
      <cc:Work
         rdf:about="">
        <dc:format>image/svg+xml</dc:format>
        <dc:type
           rdf:resource="http://purl.org/dc/dcmitype/StillImage" />
        <dc:title></dc:title>
      </cc:Work>
    </rdf:RDF>
  </metadata>
  <defs
     id="defs819" />
  <sodipodi:namedview
     pagecolor="#ffffff"
     bordercolor="#666666"
     borderopacity="1"
     objecttolerance="10"
     gridtolerance="10"
     guidetolerance="10"
     inkscape:pageopacity="0"
     inkscape:pageshadow="2"
     inkscape:window-width="958"
     inkscape:window-height="991"
     id="namedview817"
     showgrid="false"
     inkscape:pagecheckerboard="true"
     inkscape:zoom="1"
     inkscape:cx="36.392092"
     inkscape:cy="264.06177"
     inkscape:window-x="952"
     inkscape:window-y="0"
     inkscape:window-maximized="0"
     inkscape:current-layer="svg815" />
  <path
     style="fill:#f03517;fill-opacity:0.9800995;stroke:none;stroke-width:19.09959984;stroke-miterlimit:4;stroke-dasharray:none;stroke-opacity:1"
     d="M 110.51172 58.851562 A 43.724751 43.724689 0 0 0 66.787109 102.57617 A 43.724751 43.724689 0 0 0 90.291016 141.30664 L 90.291016 159.67773 C 90.291016 161.39924 91.676936 162.78516 93.398438 162.78516 L 126.95898 162.78516 C 128.68049 162.78516 130.06641 161.39924 130.06641 159.67773 L 130.06641 141.66992 A 43.724751 43.724689 0 0 0 154.23633 102.57617 A 43.724751 43.724689 0 0 0 110.51172 58.851562 z "
     id="path825" />
  <rect
     style="fill:#0000e2;fill-opacity:0.83582093;stroke:none;stroke-width:15.9283905;stroke-miterlimit:4;stroke-dasharray:none;stroke-opacity:1"
     id="rect829"
     width="39.721581"
     height="7.5633473"
     x="90.292"
     y="166.97141"
     rx="3.9217393" />
  <path
     style="fill:#5100e2;fill-opacity:0.83582091;stroke:none;stroke-width:15.9283905;stroke-miterlimit:4;stroke-dasharray:none;stroke-opacity:1"
     d="M 109.8457 178.96289 A 7.9425931 8.9578438 0 0 0 109.83594 178.9707 L 101.78711 178.9707 L 94.212891 178.9707 C 92.040247 178.9707 90.292969 180.65886 90.292969 182.75391 C 90.292969 184.84895 92.040247 186.53516 94.212891 186.53516 L 98.333984 186.53516 A 7.9425931 8.9578438 0 0 0 105.91992 195.30273 C 106.08313 195.33062 106.24852 195.35156 106.41992 195.35156 L 113.74219 195.35156 C 113.81718 195.35156 113.88739 195.33554 113.96094 195.33008 A 7.9425931 8.9578438 0 0 0 114.28125 195.3418 A 7.9425931 8.9578438 0 0 0 122.21875 186.53516 L 126.0918 186.53516 C 128.26444 186.53516 130.01367 184.84895 130.01367 182.75391 C 130.01367 180.65886 128.26444 178.9707 126.0918 178.9707 L 118.73242 178.9707 A 7.9425931 8.9578438 0 0 0 118.72266 178.96289 L 109.8457 178.96289 z "
     id="rect829-0" />
  <rect
     style="fill:#f03517;fill-opacity:0.96517414;stroke:none;stroke-width:15.9283905;stroke-miterlimit:4;stroke-dasharray:none;stroke-opacity:1"
     id="rect829-6"
     width="39.721581"
     height="7.5633473"
     x="90.291817"
     y="167.02489"
     rx="3.9217393" />
  <path
     inkscape:connector-curvature="0"
     style="fill:#f03517;fill-opacity:0.96517414;stroke:none;stroke-width:15.9283905;stroke-miterlimit:4;stroke-dasharray:none;stroke-opacity:1"
     d="m 109.84551,179.01638 a 7.9425931,8.9578438 0 0 0 -0.01,0.008 h -8.04883 -7.574215 c -2.17265,0 -3.91992,1.68816 -3.91992,3.78321 0,2.09504 1.74727,3.78125 3.91992,3.78125 h 4.12109 a 7.9425931,8.9578438 0 0 0 7.585935,8.76757 c 0.16321,0.0279 0.3286,0.0488 0.5,0.0488 h 7.32227 c 0.075,0 0.1452,-0.016 0.21875,-0.0215 a 7.9425931,8.9578438 0 0 0 0.32031,0.0117 7.9425931,8.9578438 0 0 0 7.9375,-8.80664 h 3.87305 c 2.17264,0 3.92187,-1.68621 3.92187,-3.78125 0,-2.09505 -1.74923,-3.78321 -3.92187,-3.78321 h -7.35938 a 7.9425931,8.9578438 0 0 0 -0.01,-0.008 z"
     id="rect829-0-6" />
  <path
     style="fill:none;fill-opacity:0.83582093;stroke:#f5ffff;stroke-width:5.26488209;stroke-linecap:round;stroke-linejoin:miter;stroke-miterlimit:4;stroke-dasharray:none;stroke-opacity:1"
     d="m 79.213115,96.121119 c 0.28866,-9.273689 5.93199,-14.405439 6.45442,-14.995922 2.0527,-2.320047 5.83383,-5.886923 16.461215,-9.206535"
     id="path940"
     inkscape:connector-curvature="0"
     sodipodi:nodetypes="csc" />
  <rect
     style="fill:none;fill-opacity:0.83582093;stroke:#f03517;stroke-width:3.97163773;stroke-linecap:round;stroke-miterlimit:4;stroke-dasharray:none;stroke-opacity:1"
     id="rect973"
     width="23.533007"
     height="1.9561608"
     x="163.75552"
     y="101.98902"
     ry="0"
     rx="2.0386374" />
  <rect
     style="fill:none;fill-opacity:0.83582093;stroke:#f03517;stroke-width:3.97163773;stroke-linecap:round;stroke-miterlimit:4;stroke-dasharray:none;stroke-opacity:1"
     id="rect973-8"
     width="23.533007"
     height="1.9561608"
     x="32.869419"
     y="102.01111"
     ry="0"
     rx="2.0386374" />
  <rect
     style="fill:none;fill-opacity:0.83582093;stroke:#f03517;stroke-width:3.97163773;stroke-linecap:round;stroke-miterlimit:4;stroke-dasharray:none;stroke-opacity:1"
     id="rect973-5"
     width="23.533007"
     height="1.9561608"
     x="20.01185"
     y="146.24081"
     ry="0"
     rx="2.0386374"
     transform="rotate(-59.867268)" />
  <rect
     style="fill:none;fill-opacity:0.83582093;stroke:#f03517;stroke-width:3.97163773;stroke-linecap:round;stroke-miterlimit:4;stroke-dasharray:none;stroke-opacity:1"
     id="rect973-7"
     width="23.533007"
     height="1.9561608"
     x="97.075821"
     y="143.81911"
     ry="0"
     rx="2.0386374"
     transform="rotate(-30.176798)" />
  <rect
     style="fill:none;fill-opacity:0.83582093;stroke:#f03517;stroke-width:3.97163773;stroke-linecap:round;stroke-miterlimit:4;stroke-dasharray:none;stroke-opacity:1"
     id="rect973-4"
     width="23.533007"
     height="1.9561608"
     x="201.12404"
     y="31.72011"
     ry="0"
     rx="2.0386374"
     transform="rotate(30.408777)" />
  <rect
     style="fill:none;fill-opacity:0.83582093;stroke:#f03517;stroke-width:3.97163773;stroke-linecap:round;stroke-miterlimit:4;stroke-dasharray:none;stroke-opacity:1"
     id="rect973-8-8"
     width="23.533007"
     height="1.9561608"
     x="-48.811119"
     y="109.69059"
     ry="0"
     rx="2.0386374"
     transform="rotate(-89.584099)" />
  <rect
     style="fill:none;fill-opacity:0.83582093;stroke:#f03517;stroke-width:3.97163773;stroke-linecap:round;stroke-miterlimit:4;stroke-dasharray:none;stroke-opacity:1"
     id="rect973-8-9"
     width="23.533007"
     height="1.9561608"
     x="70.389977"
     y="31.56996"
     ry="0"
     rx="2.0386374"
     transform="rotate(31.07765)" />
  <rect
     style="fill:none;fill-opacity:0.83582093;stroke:#f03517;stroke-width:3.97163773;stroke-linecap:round;stroke-miterlimit:4;stroke-dasharray:none;stroke-opacity:1"
     id="rect973-8-80"
     width="23.533007"
     height="1.9561608"
     x="-32.154526"
     y="143.62328"
     ry="0"
     rx="2.0386374"
     transform="rotate(-29.500483)" />
  <rect
     style="fill:none;fill-opacity:0.83582093;stroke:#f03517;stroke-width:3.97163773;stroke-linecap:round;stroke-miterlimit:4;stroke-dasharray:none;stroke-opacity:1"
     id="rect973-8-6"
     width="23.533007"
     height="1.9561608"
     x="66.658264"
     y="-45.481148"
     ry="0"
     rx="2.0386374"
     transform="rotate(60.295779)" />
</svg>
